# xmcd CD Database Entry
#
# Track frame offsets:
# 150
# 33902
# 50487
# 64230
# 90844
# 148760
# 178840
# 212541
# 247578
#
# Disc length: 3575 seconds
#
# Revision: 4
# Processed by: cddbd v1.4PL0 Copyright (c) Steve Scherf et al.
# Submitted via: tcd 2.0b
#
DISCID=720df509
DTITLE=Phish 1994-07-10
DYEAR=1900
DGENRE=
TTITLE0=Chalkdust Torture
TTITLE1=Horn
TTITLE2=Peaches en Regalia
TTITLE3=Rift
TTITLE4=Stash
TTITLE5=If I could
TTITLE6=My friend
TTITLE7=Julius
TTITLE8=Cavern
EXTD=
EXTT0=
EXTT1=
EXTT2=
EXTT3=
EXTT4=
EXTT5=
EXTT6=
EXTT7=
EXTT8=
PLAYORDER=
